<svg xmlns:dc="http://purl.org/dc/elements/1.1/" xmlns:cc="http://creativecommons.org/ns#" xmlns:rdf="http://www.w3.org/1999/02/22-rdf-syntax-ns#" xmlns:svg="http://www.w3.org/2000/svg" xmlns:sodipodi="http://sodipodi.sourceforge.net/DTD/sodipodi-0.dtd" xmlns:inkscape="http://www.inkscape.org/namespaces/inkscape" xmlns="http://www.w3.org/2000/svg" xmlns:xlink="http://www.w3.org/1999/xlink" version="1.1" id="svg2" inkscape:version="0.48.3.1 r9886" x="0px" y="0px" width="230px" height="230px" viewBox="0 0 230 230" enable-background="new 0 0 230 230" xml:space="preserve">
<g id="g10" transform="matrix(1.25,0,0,-1.25,0,229.99999)" inkscape:label="ink_ext_XXXXXX" inkscape:groupmode="layer">
	<g id="g12" transform="matrix(0.14704825,0,0,0.14704825,0,-66.754179)">
		<path id="path24" inkscape:connector-curvature="0" fill="#FBC707" d="M625.646 1548.821L269.3 1588.285L0 1705.233h312.812 L625.646 1548.8"/>
		<path id="path26" inkscape:connector-curvature="0" fill="#FBC707" d="M625.646 1548.821l364.507 31.304l261.139 125.108H938.458 L625.646 1548.8"/>
		<path id="path28" inkscape:connector-curvature="0" fill="#F68712" d="M625.646 610.373l340.025-12.241l285.621-144.171H938.458 L625.646 610.4"/>
		<path id="path30" inkscape:connector-curvature="0" fill="#F25C19" d="M625.646 610.373H282.901L0 453.962h312.812 L625.646 610.4"/>
		<path id="path32" inkscape:connector-curvature="0" fill="#FFF200" d="M156.406 1079.592V750.464L0 453.962v312.812 L156.406 1079.6"/>
		<path id="path34" inkscape:connector-curvature="0" fill="#FFF200" d="M156.406 1079.592l-25.837 326.44L0 1705.233v-312.81 L156.406 1079.6"/>
		<path id="path36" inkscape:connector-curvature="0" fill="#F1471D" d="M1094.859 1079.592l34.024 342.761l122.409 282.88v-312.81 L1094.859 1079.6"/>
		<path id="path38" inkscape:connector-curvature="0" fill="#F1471D" d="M1094.859 1079.592l28.583-367.211l127.849-258.419v312.812 L1094.859 1079.6"/>
		<path id="path16" inkscape:connector-curvature="0" fill="#FAB20B" d="M0 1705.233l625.646-156.412l-100.647-398.488 l-368.593-70.741L0 1705.2"/>
		<path id="path18" inkscape:connector-curvature="0" fill="#F47216" d="M1251.292 1705.233l-156.433-625.641l-420.25 76.2 l-48.964 393.048L1251.292 1705.2"/>
		<path id="path20" inkscape:connector-curvature="0" fill="#F25C19" d="M1251.292 453.962L625.646 610.373l70.725 414.8 l398.488 54.388L1251.292 454"/>
		<path id="path22" inkscape:connector-curvature="0" fill="#F89C0E" d="M0 453.962l156.406 625.63l376.753-84.31l92.487-384.908 L0 454"/>
		<path id="path14" inkscape:connector-curvature="0" fill="#F68712" d="M625.646 1548.821l-469.24-469.229l469.24-469.219 l469.213 469.219L625.646 1548.8"/>
	</g>
</g>
</svg>
